<svg width="162" height="113" viewBox="0 0 162 113" fill="none" xmlns="http://www.w3.org/2000/svg">
<path d="M24.3 48.4286C33.2353 48.4286 40.5 41.1895 40.5 32.2857C40.5 23.3819 33.2353 16.1429 24.3 16.1429C15.3647 16.1429 8.1 23.3819 8.1 32.2857C8.1 41.1895 15.3647 48.4286 24.3 48.4286ZM137.7 48.4286C146.635 48.4286 153.9 41.1895 153.9 32.2857C153.9 23.3819 146.635 16.1429 137.7 16.1429C128.765 16.1429 121.5 23.3819 121.5 32.2857C121.5 41.1895 128.765 48.4286 137.7 48.4286ZM145.8 56.5H129.6C125.145 56.5 121.12 58.2908 118.184 61.1915C128.385 66.7658 135.624 76.8299 137.194 88.7857H153.9C158.38 88.7857 162 85.1788 162 80.7143V72.6429C162 63.7391 154.735 56.5 145.8 56.5ZM81 56.5C96.6684 56.5 109.35 43.8632 109.35 28.25C109.35 12.6368 96.6684 0 81 0C65.3316 0 52.65 12.6368 52.65 28.25C52.65 43.8632 65.3316 56.5 81 56.5ZM100.44 64.5714H98.3391C93.0741 67.0938 87.2269 68.6071 81 68.6071C74.7731 68.6071 68.9513 67.0938 63.6609 64.5714H61.56C45.4613 64.5714 32.4 77.5866 32.4 93.6286V100.893C32.4 107.577 37.8422 113 44.55 113H117.45C124.158 113 129.6 107.577 129.6 100.893V93.6286C129.6 77.5866 116.539 64.5714 100.44 64.5714ZM43.8159 61.1915C40.8797 58.2908 36.855 56.5 32.4 56.5H16.2C7.26469 56.5 0 63.7391 0 72.6429V80.7143C0 85.1788 3.61969 88.7857 8.1 88.7857H24.7809C26.3756 76.8299 33.615 66.7658 43.8159 61.1915Z" fill="#6718D7"/>
</svg>
